# xmcd CD database file
#
# Track frame offsets:
#	182
#	23782
#	43107
#	66182
#	81077
#	100695
#	119702
#	145917
#	165567
#	185015
#	207187
#
# Disc length: 2999 seconds
#
# Revision: 0
# Processed by: cddbd v1.5.2PL0 Copyright (c) Steve Scherf et al.
# Submitted via: CDex 1.70
#
DISCID=990bb50b
DTITLE=Yahoo - One Second
DYEAR=1987
DGENRE=New Age
TTITLE0=La Habanera
TTITLE1=Moon on Ice
TTITLE2=Call it Love
TTITLE3=Le Secret Farida
TTITLE4=Hawaiian Chance
TTITLE5=The Rhythm Devine
TTITLE6=Santiago
TTITLE7=Goldrush
TTITLE8=Dr van Steiner
TTITLE9=Si Senor The Hairy Grill
TTITLE10=L'Hotel
EXTD=YEAR: 1987
EXTT0=
EXTT1=
EXTT2=
EXTT3=
EXTT4=
EXTT5=
EXTT6=
EXTT7=
EXTT8=
EXTT9=
EXTT10=
PLAYORDER=
